<svg xmlns="http://www.w3.org/2000/svg" version="1.1" xmlns:xlink="http://www.w3.org/1999/xlink" xmlns:svgjs="http://svgjs.dev/svgjs" width="1000" height="1125" viewBox="0 0 1000 1125"><g transform="matrix(1,0,0,1,0.0011008540699322111,0)"><svg viewBox="0 0 320 360" data-background-color="#fce44d" preserveAspectRatio="xMidYMid meet" height="1125" width="1000" xmlns="http://www.w3.org/2000/svg" xmlns:xlink="http://www.w3.org/1999/xlink"><g id="tight-bounds" transform="matrix(1,0,0,1,0.00010353528136874957,0)"><svg viewBox="0 0 320 360" height="360" width="320"><g><svg></svg></g><g><svg viewBox="0 0 320 360" height="360" width="320"><g><path d="M307.925 179.999l6.575-11.387c11.322-19.607 4.604-44.679-15.003-56.001l-11.387-6.575v-13.151c0-22.639-18.354-40.994-40.994-40.994h-13.151l-6.575-11.387c-11.322-19.607-36.393-26.325-56.001-15.003l-11.39 6.572-11.387-6.576c-19.607-11.318-44.679-4.6-56.001 15.007l-6.575 11.387h-13.151c-22.639 0-40.994 18.354-40.994 40.994v13.151l-11.387 6.575c-19.607 11.322-26.325 36.393-15.003 56.001l6.572 11.387-6.576 11.387c-11.318 19.607-4.6 44.679 15.007 56l11.387 6.576v13.15c0 22.639 18.354 40.994 40.994 40.994h13.151l6.575 11.387c11.322 19.607 36.393 26.325 56.001 15.003l11.387-6.571 11.387 6.575c19.607 11.322 44.679 4.604 56-15.003l6.576-11.387h13.15c22.639 0 40.994-18.354 40.994-40.994v-13.151l11.387-6.575c19.607-11.322 26.325-36.393 15.003-56.001zM297.702 115.716c8.655 4.996 14.842 13.062 17.428 22.713 2.586 9.65 1.261 19.734-3.735 28.384l-5.538 9.596-17.747-30.74v-35.494zM251.155 271.155l-57.791 33.365h-66.731l-57.791-33.365-33.365-57.791v-66.731l33.365-57.791 57.791-33.365h66.731l57.791 33.365 33.365 57.791v66.731zM284.517 220.539v31.351l-27.151 15.676zM247.566 277.366l-15.676 27.151h-31.351zM187.15 308.106l-27.151 15.676-27.151-15.676zM119.459 304.517h-31.352l-15.676-27.151zM62.632 267.566l-27.151-15.676v-31.351zM31.891 207.15l-15.675-27.151 15.675-27.151zM35.481 139.459v-31.352l27.151-15.676zM72.431 82.632l15.676-27.151h31.352zM132.848 51.891l27.151-15.675 27.151 15.675zM200.539 55.481h31.351l15.676 27.151zM257.366 92.431l27.151 15.676v31.352zM288.106 152.848l15.676 27.151-15.676 27.151zM247.112 55.481c9.992 0 19.384 3.889 26.452 10.956 7.063 7.063 10.956 16.46 10.957 26.452v11.079l-30.741-17.747-17.747-30.74zM173.18 28.606c8.655-4.996 18.735-6.322 28.385-3.735 9.65 2.586 17.716 8.777 22.712 17.428l5.538 9.596h-35.494l-30.741-17.747zM95.716 42.295c4.996-8.655 13.062-14.842 22.713-17.428 9.65-2.586 19.734-1.261 28.384 3.736l9.596 5.537-30.74 17.747h-35.494zM35.481 92.885c0-9.992 3.889-19.384 10.956-26.452 7.063-7.063 16.46-10.956 26.452-10.956h11.079l-17.747 30.74-30.74 17.747zM8.606 166.817c-4.996-8.655-6.322-18.735-3.735-28.385 2.586-9.65 8.777-17.716 17.428-22.712l9.596-5.538v35.495l-17.747 30.74zM22.295 244.281c-8.655-4.996-14.842-13.062-17.428-22.712-2.586-9.65-1.261-19.734 3.736-28.385l5.537-9.596 17.747 30.74v35.495zM72.885 304.517c-9.992 0-19.384-3.889-26.452-10.957-7.063-7.063-10.956-16.46-10.956-26.451v-11.08l30.74 17.747 17.747 30.741zM146.817 331.391c-8.655 4.996-18.735 6.322-28.385 3.735-9.65-2.586-17.716-8.777-22.712-17.428l-5.538-9.596h35.495l30.74 17.747zM224.281 317.702c-4.996 8.655-13.062 14.842-22.712 17.428-9.65 2.586-19.734 1.261-28.385-3.735l-9.596-5.538 30.74-17.747h35.495zM284.517 267.112c0 9.992-3.889 19.384-10.957 26.452-7.063 7.063-16.46 10.956-26.451 10.957h-11.08l17.747-30.741 30.741-17.747zM315.13 221.565c-2.586 9.65-8.777 17.716-17.428 22.712l-9.596 5.538v-35.494l17.747-30.741 5.538 9.596c4.996 8.658 6.326 18.739 3.739 28.389z" fill="#000000" fill-rule="nonzero" stroke="none" stroke-width="1" stroke-linecap="butt" stroke-linejoin="miter" stroke-miterlimit="10" stroke-dasharray="" stroke-dashoffset="0" font-family="none" font-weight="none" font-size="none" text-anchor="none" style="mix-blend-mode: normal" data-fill-palette-color="tertiary"></path></g><g transform="matrix(1,0,0,1,116.95550892343783,90)"><svg viewBox="0 0 86.08898215312432 180" height="180" width="86.08898215312432"><g><svg viewBox="0 0 86.08898215312432 180" height="180" width="86.08898215312432"><g><svg viewBox="0 0 118.6729800841515 248.1285744225986" height="180" width="86.08898215312432"><g><svg viewBox="0 0 118.6729800841515 248.1285744225986" height="248.1285744225986" width="118.6729800841515"><g><svg viewBox="0 0 118.6729800841515 248.1285744225986" height="248.1285744225986" width="118.6729800841515"><g><svg viewBox="0 0 118.6729800841515 178.88760000000002" height="178.88760000000002" width="118.6729800841515"><g transform="matrix(1,0,0,1,0,0)"><svg width="118.6729800841515" viewBox="2.85 -35.3 23.65 35.65" height="178.88760000000002" data-palette-color="#000000"><path d="M14.9 0.35Q11.45 0.35 8.72-0.88 6-2.1 4.45-4.28 2.9-6.45 2.85-9.3L2.85-9.3 7.7-9.3Q7.95-6.85 9.73-5.18 11.5-3.5 14.9-3.5L14.9-3.5Q18.15-3.5 20.03-5.13 21.9-6.75 21.9-9.3L21.9-9.3Q21.9-11.3 20.8-12.55 19.7-13.8 18.05-14.45 16.4-15.1 13.6-15.85L13.6-15.85Q10.15-16.75 8.08-17.65 6-18.55 4.53-20.48 3.05-22.4 3.05-25.65L3.05-25.65Q3.05-28.5 4.5-30.7 5.95-32.9 8.58-34.1 11.2-35.3 14.6-35.3L14.6-35.3Q19.5-35.3 22.63-32.85 25.75-30.4 26.15-26.35L26.15-26.35 21.15-26.35Q20.9-28.35 19.05-29.88 17.2-31.4 14.15-31.4L14.15-31.4Q11.3-31.4 9.5-29.93 7.7-28.45 7.7-25.8L7.7-25.8Q7.7-23.9 8.78-22.7 9.85-21.5 11.43-20.88 13-20.25 15.85-19.45L15.85-19.45Q19.3-18.5 21.4-17.57 23.5-16.65 25-14.73 26.5-12.8 26.5-9.5L26.5-9.5Q26.5-6.95 25.15-4.7 23.8-2.45 21.15-1.05 18.5 0.35 14.9 0.35L14.9 0.35Z" opacity="1" transform="matrix(1,0,0,1,0,0)" fill="#000000" class="undefined-text-0" data-fill-palette-color="primary" id="text-0"></path></svg></g></svg></g><g transform="matrix(1,0,0,1,0,204.99159414240003)"><svg viewBox="0 0 118.6729800841515 43.1369802801986" height="43.1369802801986" width="118.6729800841515"><g transform="matrix(1,0,0,1,0,0)"><svg width="118.6729800841515" viewBox="2 -35.7 128.19 46.6" height="43.1369802801986" data-palette-color="#000000"><path d="M18.7-32.2L10.4-31.7 10.4-4.5Q13.3-2.8 18.3-2.8L18.3-2.8Q24.25-2.8 28.8-6.05L28.8-6.05Q31.1-7.7 32.45-10.65 33.8-13.6 33.8-17.32 33.8-21.05 32.33-23.95 30.85-26.85 28.5-28.6L28.5-28.6Q23.75-32.2 18.7-32.2L18.7-32.2ZM2-35L9.7-35 22.1-35.5Q29.05-35.5 33.08-31 37.1-26.5 37.1-18.98 37.1-11.45 31.33-5.73 25.55 0 17.8 0L17.8 0 2 0 2-1.5 3.7-1.5Q5.2-1.5 5.65-2.05 6.1-2.6 6.1-3.7L6.1-3.7 6.1-31.3Q6.1-32.45 5.63-32.98 5.15-33.5 3.7-33.5L3.7-33.5 2-33.5 2-35ZM60.2-6.1L60.2-6.1 61.1-5.2Q57.9 0.7 49.6 0.7L49.6 0.7Q45.75 0.7 43.02-2.7 40.3-6.1 40.3-10.3L40.3-10.3Q40.3-15.95 43.97-19.98 47.65-24 52.9-24L52.9-24Q55.4-24 57.3-22.55L57.3-22.55Q60.7-19.9 60.7-15.7L60.7-15.7Q60.7-15.1 60.47-14.25 60.25-13.4 60.1-13.4L60.1-13.4 44-12.9Q44-9 46.45-5.7 48.9-2.4 52.4-2.4L52.4-2.4Q54.9-2.4 57.02-3.43 59.15-4.45 60.2-6.1ZM44.5-14.9L44.5-14.9 56.2-15.4Q56.3-15.4 56.3-16.3L56.3-16.3Q56.3-18.9 54.77-20 53.25-21.1 50.57-21.1 47.9-21.1 46.2-19.45 44.5-17.8 44.5-14.9ZM74.3 0.5L73.5 0.7 65.9-19.6Q65.45-20.75 64.92-21.28 64.4-21.8 63.3-21.8L63.3-21.8 62.6-21.8 62.6-23.3 71.9-23.3 71.8-21.8 71.3-21.8Q69.8-21.8 69.8-20.9L69.8-20.9Q69.8-20.3 69.9-20.1L69.9-20.1 75.5-5.4 81.2-19.8Q81.6-20.6 81.6-21.05 81.6-21.5 81.07-21.65 80.55-21.8 78.7-21.8L78.7-21.8 78.1-21.8 78.1-23.3 87.5-23.3 87.5-21.8 87.1-21.8Q85.5-21.8 84.82-21.3 84.15-20.8 83.6-19.4L83.6-19.4 77-2.5Q76.6-2.5 75.45-1.18 74.3 0.15 74.3 0.5L74.3 0.5ZM89.29 10.9L89.29 10.9 88.19 9Q90.29 7.6 91.94 5.55 93.59 3.5 93.59 1.8L93.59 1.8 93.59-31.3Q93.59-32.05 93.49-32.45 93.39-32.85 92.84-33.18 92.29-33.5 91.19-33.5L91.19-33.5 89.59-33.5 89.59-35 102.29-35 102.29-33.5 100.39-33.5Q99.29-33.5 98.74-33.18 98.19-32.85 98.09-32.45 97.99-32.05 97.99-31.3L97.99-31.3 97.99 0.3Q97.99 5.45 95.19 7.7L95.19 7.7Q94.24 8.45 93.49 8.83 92.74 9.2 91.39 9.83 90.04 10.45 89.29 10.9ZM105.69-2.4L105.69-2.4 106.39-8.9 108.09-8.8Q108.09-6.05 111.37-4.38 114.64-2.7 118.82-2.7 122.99-2.7 125.09-3.98 127.19-5.25 127.19-7.2L127.19-7.2Q127.19-10.5 123.69-13.1L123.69-13.1Q122.24-14.15 120.64-14.95L120.64-14.95Q116.99-16.85 116.07-17.38 115.14-17.9 113.99-18.45 112.84-19 111.87-19.63 110.89-20.25 109.79-21.15L109.79-21.15Q107.29-23.15 107.29-25.63 107.29-28.1 108.17-29.95 109.04-31.8 110.37-32.85 111.69-33.9 113.49-34.6L113.49-34.6Q116.54-35.7 120.32-35.7 124.09-35.7 127.59-33.8L127.59-33.8 126.99-28 125.29-28Q125.29-32.7 117.39-32.7L117.39-32.7Q113.74-32.7 111.92-31.55 110.09-30.4 110.09-28.4L110.09-28.4Q110.09-25.2 120.49-20.7L120.49-20.7Q127.34-17.75 129.24-14.15L129.24-14.15Q130.19-12.35 130.19-10.2L130.19-10.2Q130.19-5 126.02-2.15 121.84 0.7 115.94 0.7 110.04 0.7 105.69-2.4Z" opacity="1" transform="matrix(1,0,0,1,0,0)" fill="#000000" class="undefined-text-1" data-fill-palette-color="secondary" id="text-1"></path></svg></g></svg></g></svg></g></svg></g><g></g></svg></g></svg></g></svg></g></svg></g><defs></defs></svg><rect width="320" height="360" fill="none" stroke="none" visibility="hidden"></rect></g></svg></g></svg>